<svg width="26" height="27" viewBox="0 0 26 27" fill="none" xmlns="http://www.w3.org/2000/svg">
<path d="M2.84615 4.26923C2.35652 4.26923 1.88695 4.46374 1.54073 4.80995C1.19451 5.15617 1 5.62574 1 6.11538V23.6538C1 24.1434 1.19451 24.6131 1.54073 24.9593C1.88695 25.3054 2.35652 25.5 2.84615 25.5H23.1538C23.6434 25.5 24.1131 25.3054 24.4593 24.9593C24.8054 24.6131 25 24.1434 25 23.6538V6.11538C25 5.62574 24.8054 5.15617 24.4593 4.80995C24.1131 4.46374 23.6434 4.26923 23.1538 4.26923H19.4615" stroke="#2F2F2F" stroke-width="1.5" stroke-linecap="round" stroke-linejoin="round"/>
<path d="M1 10.7308H25" stroke="#2F2F2F" stroke-width="1.5" stroke-linecap="round" stroke-linejoin="round"/>
<path d="M6.53845 1.5V7.03846" stroke="#2F2F2F" stroke-width="1.5" stroke-linecap="round" stroke-linejoin="round"/>
<path d="M19.4615 1.5V7.03846" stroke="#2F2F2F" stroke-width="1.5" stroke-linecap="round" stroke-linejoin="round"/>
<path d="M6.53845 4.26923H15.7692" stroke="#2F2F2F" stroke-width="1.5" stroke-linecap="round" stroke-linejoin="round"/>
</svg>
