<svg width="36" height="36" viewBox="0 0 36 36" fill="none" xmlns="http://www.w3.org/2000/svg">
<rect x="0.75" y="0.75" width="34.5" height="34.5" rx="17.25" fill="#EDEDED"/>
<rect x="0.75" y="0.75" width="34.5" height="34.5" rx="17.25" stroke="#696969" stroke-width="1.5"/>
<path d="M9.53846 10.3077C9.13043 10.3077 8.73912 10.4698 8.4506 10.7583C8.16209 11.0468 8 11.4381 8 11.8461V26.4615C8 26.8695 8.16209 27.2609 8.4506 27.5494C8.73912 27.8378 9.13043 28 9.53846 28H26.4615C26.8695 28 27.2609 27.8378 27.5494 27.5494C27.8378 27.2609 28 26.8695 28 26.4615V11.8461C28 11.4381 27.8378 11.0468 27.5494 10.7583C27.2609 10.4698 26.8695 10.3077 26.4615 10.3077H23.3846" stroke="#3D3D3D" stroke-width="1.5" stroke-linecap="round" stroke-linejoin="round"/>
<path d="M8 15.6923H28" stroke="#3D3D3D" stroke-width="1.5" stroke-linecap="round" stroke-linejoin="round"/>
<path d="M12.6155 8V12.6154" stroke="#3D3D3D" stroke-width="1.5" stroke-linecap="round" stroke-linejoin="round"/>
<path d="M23.3845 8V12.6154" stroke="#3D3D3D" stroke-width="1.5" stroke-linecap="round" stroke-linejoin="round"/>
<path d="M12.6155 10.3077H20.3078" stroke="#3D3D3D" stroke-width="1.5" stroke-linecap="round" stroke-linejoin="round"/>
</svg>
