<svg width="25" height="27" viewBox="0 0 25 27" fill="none" xmlns="http://www.w3.org/2000/svg">
<path d="M5.23847 20.0334C6.53832 20.0334 7.59203 19.0852 7.59203 17.9155C7.59203 16.7458 6.53832 15.7976 5.23847 15.7976C3.93863 15.7976 2.88489 16.7458 2.88489 17.9155C2.88489 19.0852 3.93863 20.0334 5.23847 20.0334Z" stroke="#2F2F2F" stroke-width="1.5" stroke-linecap="round" stroke-linejoin="round"/>
<path d="M1 25.4999C1.00749 24.8542 1.19674 24.2207 1.55006 23.6586C2.29461 22.4742 3.72457 21.7221 5.23644 21.7191C6.7483 21.7221 8.17827 22.4742 8.92282 23.6586C9.27613 24.2207 9.46537 24.8542 9.47287 25.4999" stroke="#2F2F2F" stroke-width="1.5" stroke-linecap="round" stroke-linejoin="round"/>
<path d="M19.7656 20.0334C21.0655 20.0334 22.1192 19.0852 22.1192 17.9155C22.1192 16.7458 21.0655 15.7976 19.7656 15.7976C18.4657 15.7976 17.412 16.7458 17.412 17.9155C17.412 19.0852 18.4657 20.0334 19.7656 20.0334Z" stroke="#2F2F2F" stroke-width="1.5" stroke-linecap="round" stroke-linejoin="round"/>
<path d="M15.5271 25.4999C15.5346 24.8542 15.7238 24.2207 16.0772 23.6586C16.8217 22.4742 18.2517 21.7221 19.7635 21.7191C21.2754 21.7221 22.7054 22.4742 23.4498 23.6586C23.8033 24.2207 23.9926 24.8542 24 25.4999" stroke="#2F2F2F" stroke-width="1.5" stroke-linecap="round" stroke-linejoin="round"/>
<path d="M12.4938 7.99864C13.7072 7.99864 14.6908 7.11352 14.6908 6.02166C14.6908 4.9298 13.7072 4.04468 12.4938 4.04468C11.2805 4.04468 10.2969 4.9298 10.2969 6.02166C10.2969 7.11352 11.2805 7.99864 12.4938 7.99864Z" stroke="#2F2F2F" stroke-width="1.5" stroke-linecap="round" stroke-linejoin="round"/>
<path d="M8.38794 12.9553C8.39522 12.3292 8.5787 11.715 8.92127 11.17C9.6432 10.0216 11.0297 9.29229 12.4956 9.28943C13.9615 9.29229 15.348 10.0216 16.0699 11.17C16.4125 11.715 16.596 12.3292 16.6033 12.9553" stroke="#2F2F2F" stroke-width="1.5" stroke-linecap="round" stroke-linejoin="round"/>
<path d="M22.3563 1.5H2.63558C1.81762 1.5 1.15454 2.0967 1.15454 2.83275V11.6225C1.15454 12.3585 1.81762 12.9552 2.63558 12.9552H22.3563C23.1741 12.9552 23.8373 12.3585 23.8373 11.6225V2.83275C23.8373 2.0967 23.1741 1.5 22.3563 1.5Z" stroke="#2F2F2F" stroke-width="1.5" stroke-linecap="round" stroke-linejoin="round"/>
</svg>
