<svg width="27" height="27" viewBox="0 0 27 27" fill="none" xmlns="http://www.w3.org/2000/svg">
<path d="M11.5538 25.75H15.3916" stroke="#2F2F2F" stroke-width="1.5" stroke-linecap="round" stroke-linejoin="round"/>
<path d="M21.1482 11.05C21.1482 8.97072 20.3396 6.97659 18.9001 5.5063C17.4606 4.03602 15.5084 3.21002 13.4727 3.21002C11.437 3.21002 9.4847 4.03602 8.04525 5.5063C6.60582 6.97659 5.79715 8.97072 5.79715 11.05V17.91C5.79715 18.6897 5.49388 19.4376 4.9541 19.989C4.41432 20.5403 3.68219 20.85 2.91882 20.85H24.0265C23.2632 20.85 22.5309 20.5403 21.9912 19.989C21.4514 19.4376 21.1482 18.6897 21.1482 17.91V11.05Z" stroke="#2F2F2F" stroke-width="1.5" stroke-linecap="round" stroke-linejoin="round"/>
<path d="M1 10.7952C1.00103 8.92955 1.43661 7.09094 2.27076 5.43121C3.1049 3.77148 4.31366 2.33829 5.7972 1.25" stroke="#2F2F2F" stroke-width="1.5" stroke-linecap="round" stroke-linejoin="round"/>
<path d="M25.9454 10.7952C25.9444 8.92955 25.5089 7.09094 24.6747 5.43121C23.8406 3.77148 22.6317 2.33829 21.1482 1.25" stroke="#2F2F2F" stroke-width="1.5" stroke-linecap="round" stroke-linejoin="round"/>
</svg>
