<svg width="26" height="27" viewBox="0 0 26 27" fill="none" xmlns="http://www.w3.org/2000/svg">
<path d="M10.62 8.53077C7.07483 6.1119 3.76968 7.95837 1 10.8019L7.13022 14.4949" stroke="#2F2F2F" stroke-width="1.5" stroke-linecap="round" stroke-linejoin="round"/>
<path d="M17.9689 15.88C20.3877 19.4251 18.5413 22.7303 15.6978 25.5L12.0049 19.3698" stroke="#2F2F2F" stroke-width="1.5" stroke-linecap="round" stroke-linejoin="round"/>
<path d="M7.13025 14.4768L12.0233 19.3699C15.9378 17.0249 20.3878 14.7537 22.4189 12.6488C26.8134 8.25418 24.2653 2.23471 24.2653 2.23471C24.2653 2.23471 18.2459 -0.313418 13.8513 4.08116C11.7464 6.11227 9.45678 10.5807 7.13025 14.4768Z" stroke="#2F2F2F" stroke-width="1.5" stroke-linecap="round" stroke-linejoin="round"/>
<path d="M9.82617 9.84204L16.658 16.674" stroke="#2F2F2F" stroke-width="1.5" stroke-linecap="round" stroke-linejoin="round"/>
<path d="M19.4645 7.95853C19.9743 7.95853 20.3877 7.54518 20.3877 7.03529C20.3877 6.52541 19.9743 6.11206 19.4645 6.11206C18.9547 6.11206 18.5413 6.52541 18.5413 7.03529C18.5413 7.54518 18.9547 7.95853 19.4645 7.95853Z" stroke="#2F2F2F" stroke-width="1.5" stroke-linecap="round" stroke-linejoin="round"/>
<path d="M6.87172 23.5425C5.80078 24.5766 1 25.4998 1 25.4998C1 25.4998 1.92323 20.699 2.95724 19.628C3.21079 19.356 3.51657 19.1378 3.85631 18.9864C4.19606 18.835 4.56282 18.7536 4.9347 18.747C5.30659 18.7405 5.67599 18.8089 6.02087 18.9482C6.36573 19.0874 6.67902 19.2947 6.94203 19.5579C7.20502 19.8208 7.41236 20.1342 7.55167 20.4791C7.69097 20.8238 7.75938 21.1933 7.75281 21.5652C7.74625 21.937 7.66486 22.3037 7.51347 22.6435C7.3621 22.9832 7.14383 23.289 6.87172 23.5425Z" stroke="#2F2F2F" stroke-width="1.5" stroke-linecap="round" stroke-linejoin="round"/>
</svg>
