<svg width="26" height="27" viewBox="0 0 26 27" fill="none" xmlns="http://www.w3.org/2000/svg">
<path d="M13 25.5C10.2959 22.5227 6.62856 20.5944 2.64311 20.0538C2.18948 20.0036 1.77051 19.787 1.46708 19.4462C1.16365 19.1052 0.997267 18.664 1.00003 18.2076V3.34595C1.00002 3.07929 1.05777 2.81578 1.16931 2.57357C1.28085 2.33136 1.44354 2.11619 1.64619 1.94286C1.84526 1.77268 2.07826 1.64681 2.32973 1.5736C2.58117 1.50039 2.84534 1.48152 3.10465 1.51824C6.91564 2.15075 10.402 4.05004 13 6.90905V25.5Z" stroke="#2F2F2F" stroke-width="1.5" stroke-linecap="round" stroke-linejoin="round"/>
<path d="M13 25.5C15.7042 22.5227 19.3714 20.5944 23.3569 20.0538C23.8105 20.0036 24.2296 19.787 24.5329 19.4462C24.8364 19.1052 25.0028 18.664 25 18.2076V3.34595C25 3.07929 24.9422 2.81578 24.8307 2.57357C24.7192 2.33136 24.5565 2.11619 24.3538 1.94286C24.1548 1.77268 23.9218 1.64681 23.6704 1.5736C23.4188 1.50039 23.1548 1.48152 22.8954 1.51824C19.0844 2.15075 15.5981 4.05004 13 6.90905V25.5Z" stroke="#2F2F2F" stroke-width="1.5" stroke-linecap="round" stroke-linejoin="round"/>
</svg>
