<svg width="26" height="26" viewBox="0 0 26 26" fill="none" xmlns="http://www.w3.org/2000/svg">
<path d="M25 14.8462H18.5385C18.0488 14.8462 17.5793 15.0407 17.233 15.3869C16.8868 15.7331 16.6923 16.2027 16.6923 16.6923C16.6923 17.6716 16.3033 18.6107 15.6108 19.3032C14.9184 19.9957 13.9793 20.3847 13 20.3847C12.0207 20.3847 11.0816 19.9957 10.3892 19.3032C9.6967 18.6107 9.30769 17.6716 9.30769 16.6923C9.30769 16.2027 9.11318 15.7331 8.76697 15.3869C8.42074 15.0407 7.95118 14.8462 7.46154 14.8462H1V23.1539C1 23.6435 1.19451 24.1131 1.54073 24.4593C1.88695 24.8055 2.35652 25 2.84615 25H23.1538C23.6434 25 24.1131 24.8055 24.4593 24.4593C24.8054 24.1131 25 23.6435 25 23.1539V14.8462Z" stroke="#2F2F2F" stroke-width="1.5" stroke-linecap="round" stroke-linejoin="round"/>
<path d="M8.38464 7.46155L13 12.0769L17.6154 7.46155" stroke="#2F2F2F" stroke-width="1.5" stroke-linecap="round" stroke-linejoin="round"/>
<path d="M13 1V12.0769" stroke="#2F2F2F" stroke-width="1.5" stroke-linecap="round" stroke-linejoin="round"/>
</svg>
