<svg width="26" height="27" viewBox="0 0 26 27" fill="none" xmlns="http://www.w3.org/2000/svg">
<path d="M24.8726 7.21351C24.8369 7.01996 24.7608 6.83607 24.6491 6.67377C24.5374 6.51149 24.3927 6.37444 24.2243 6.27153L20.5197 9.96555C20.3468 10.1443 20.1397 10.2865 19.9106 10.3836C19.6815 10.4807 19.4349 10.5308 19.186 10.5308C18.937 10.5308 18.6907 10.4807 18.4615 10.3836C18.2323 10.2865 18.0251 10.1443 17.8523 9.96555L16.4446 8.70958C16.1052 8.36432 15.9151 7.90013 15.9151 7.41668C15.9151 6.93322 16.1052 6.46903 16.4446 6.12377L20.1492 2.42975C20.0684 2.2405 19.9469 2.07126 19.7934 1.93402C19.6396 1.79678 19.4577 1.69488 19.2601 1.63553C17.9675 1.3785 16.6285 1.48852 15.3955 1.95308C14.1626 2.41763 13.0852 3.21803 12.286 4.26318C11.4869 5.30833 10.9981 6.55623 10.8753 7.86478C10.7602 9.09057 10.9707 10.3234 11.4835 11.4402L1.54254 21.3525C0.808701 22.0843 0.820871 23.2743 1.56952 23.991L2.60827 24.9854C3.33279 25.6789 4.47967 25.6705 5.19372 24.966L15.2488 15.0485C16.3363 15.4963 17.521 15.6666 18.6949 15.5412C19.9928 15.4024 21.2269 14.9074 22.2596 14.1112C23.2924 13.3149 24.0834 12.2486 24.5446 11.0309C25.006 9.81317 25.1196 8.49173 24.8726 7.21351Z" stroke="#2F2F2F" stroke-width="1.5" stroke-linecap="round" stroke-linejoin="round"/>
</svg>
